<svg xmlns="http://www.w3.org/2000/svg" version="1.1" xmlns:xlink="http://www.w3.org/1999/xlink" xmlns:svgjs="http://svgjs.dev/svgjs" width="1440" height="560" preserveAspectRatio="none" viewBox="0 0 1440 560"><g mask="url(&quot;#SvgjsMask1356&quot;)" fill="none"><rect width="1440" height="560" x="0" y="0" fill="url(&quot;#SvgjsLinearGradient1357&quot;)"></rect><path d="M-91.83 349.16L-91.83 349.16" stroke="rgba(2, 39, 58, 1)" stroke-width="1.5"></path><path d="M-91.83 349.16L-55.77 493.46" stroke="rgba(2, 39, 58, 1)" stroke-width="1.5"></path><path d="M-91.83 349.16L45.02 410.94" stroke="rgba(2, 39, 58, 1)" stroke-width="1.5"></path><path d="M-91.83 349.16L42.31 513.24" stroke="rgba(2, 39, 58, 1)" stroke-width="1.5"></path><path d="M-55.77 493.46L-55.77 493.46" stroke="rgba(2, 39, 58, 1)" stroke-width="1.5"></path><path d="M-55.77 493.46L42.31 513.24" stroke="rgba(2, 39, 58, 1)" stroke-width="1.5"></path><path d="M-55.77 493.46L45.02 410.94" stroke="rgba(2, 39, 58, 1)" stroke-width="1.5"></path><path d="M-55.77 493.46L-63.47 665.91" stroke="rgba(2, 39, 58, 1)" stroke-width="1.5"></path><path d="M-63.47 665.91L-63.47 665.91" stroke="rgba(2, 39, 58, 1)" stroke-width="1.5"></path><path d="M-63.47 665.91L80.47 674.6" stroke="rgba(2, 39, 58, 1)" stroke-width="1.5"></path><path d="M-63.47 665.91L42.31 513.24" stroke="rgba(2, 39, 58, 1)" stroke-width="1.5"></path><path d="M45.02 410.94L45.02 410.94" stroke="rgba(2, 39, 58, 1)" stroke-width="1.5"></path><path d="M45.02 410.94L42.31 513.24" stroke="rgba(2, 39, 58, 1)" stroke-width="1.5"></path><path d="M45.02 410.94L243.21 366.33" stroke="rgba(2, 39, 58, 1)" stroke-width="1.5"></path><path d="M45.02 410.94L243.14 548.49" stroke="rgba(2, 39, 58, 1)" stroke-width="1.5"></path><path d="M45.02 410.94L80.47 674.6" stroke="rgba(2, 39, 58, 1)" stroke-width="1.5"></path><path d="M42.31 513.24L42.31 513.24" stroke="rgba(2, 39, 58, 1)" stroke-width="1.5"></path><path d="M42.31 513.24L80.47 674.6" stroke="rgba(2, 39, 58, 1)" stroke-width="1.5"></path><path d="M42.31 513.24L243.14 548.49" stroke="rgba(2, 39, 58, 1)" stroke-width="1.5"></path><path d="M80.47 674.6L80.47 674.6" stroke="rgba(2, 39, 58, 1)" stroke-width="1.5"></path><path d="M80.47 674.6L201.69 666.86" stroke="rgba(2, 39, 58, 1)" stroke-width="1.5"></path><path d="M80.47 674.6L243.14 548.49" stroke="rgba(2, 39, 58, 1)" stroke-width="1.5"></path><path d="M243.21 366.33L243.21 366.33" stroke="rgba(2, 39, 58, 1)" stroke-width="1.5"></path><path d="M243.21 366.33L346.72 395.53" stroke="rgba(2, 39, 58, 1)" stroke-width="1.5"></path><path d="M243.21 366.33L243.14 548.49" stroke="rgba(2, 39, 58, 1)" stroke-width="1.5"></path><path d="M243.21 366.33L371.92 537.59" stroke="rgba(2, 39, 58, 1)" stroke-width="1.5"></path><path d="M243.14 548.49L243.14 548.49" stroke="rgba(2, 39, 58, 1)" stroke-width="1.5"></path><path d="M243.14 548.49L201.69 666.86" stroke="rgba(2, 39, 58, 1)" stroke-width="1.5"></path><path d="M243.14 548.49L371.92 537.59" stroke="rgba(2, 39, 58, 1)" stroke-width="1.5"></path><path d="M201.69 666.86L201.69 666.86" stroke="rgba(2, 39, 58, 1)" stroke-width="1.5"></path><path d="M201.69 666.86L361.6 649.59" stroke="rgba(2, 39, 58, 1)" stroke-width="1.5"></path><path d="M346.72 395.53L346.72 395.53" stroke="rgba(2, 39, 58, 1)" stroke-width="1.5"></path><path d="M346.72 395.53L371.92 537.59" stroke="rgba(2, 39, 58, 1)" stroke-width="1.5"></path><path d="M371.92 537.59L371.92 537.59" stroke="rgba(2, 39, 58, 1)" stroke-width="1.5"></path><path d="M371.92 537.59L361.6 649.59" stroke="rgba(2, 39, 58, 1)" stroke-width="1.5"></path><path d="M361.6 649.59L361.6 649.59" stroke="rgba(2, 39, 58, 1)" stroke-width="1.5"></path><path d="M361.6 649.59L503.72 645.8" stroke="rgba(2, 39, 58, 1)" stroke-width="1.5"></path><path d="M361.6 649.59L243.14 548.49" stroke="rgba(2, 39, 58, 1)" stroke-width="1.5"></path><path d="M361.6 649.59L519.08 506.27" stroke="rgba(2, 39, 58, 1)" stroke-width="1.5"></path><path d="M538.27 404.98L538.27 404.98" stroke="rgba(2, 39, 58, 1)" stroke-width="1.5"></path><path d="M538.27 404.98L519.08 506.27" stroke="rgba(2, 39, 58, 1)" stroke-width="1.5"></path><path d="M538.27 404.98L661.39 488.54" stroke="rgba(2, 39, 58, 1)" stroke-width="1.5"></path><path d="M538.27 404.98L711.03 389.69" stroke="rgba(2, 39, 58, 1)" stroke-width="1.5"></path><path d="M538.27 404.98L346.72 395.53" stroke="rgba(2, 39, 58, 1)" stroke-width="1.5"></path><path d="M538.27 404.98L371.92 537.59" stroke="rgba(2, 39, 58, 1)" stroke-width="1.5"></path><path d="M519.08 506.27L519.08 506.27" stroke="rgba(2, 39, 58, 1)" stroke-width="1.5"></path><path d="M519.08 506.27L503.72 645.8" stroke="rgba(2, 39, 58, 1)" stroke-width="1.5"></path><path d="M519.08 506.27L661.39 488.54" stroke="rgba(2, 39, 58, 1)" stroke-width="1.5"></path><path d="M519.08 506.27L371.92 537.59" stroke="rgba(2, 39, 58, 1)" stroke-width="1.5"></path><path d="M519.08 506.27L346.72 395.53" stroke="rgba(2, 39, 58, 1)" stroke-width="1.5"></path><path d="M503.72 645.8L503.72 645.8" stroke="rgba(2, 39, 58, 1)" stroke-width="1.5"></path><path d="M503.72 645.8L669.83 665.83" stroke="rgba(2, 39, 58, 1)" stroke-width="1.5"></path><path d="M687.43 235.23L687.43 235.23" stroke="rgba(2, 39, 58, 1)" stroke-width="1.5"></path><path d="M687.43 235.23L837.39 221.47" stroke="rgba(2, 39, 58, 1)" stroke-width="1.5"></path><path d="M687.43 235.23L711.03 389.69" stroke="rgba(2, 39, 58, 1)" stroke-width="1.5"></path><path d="M711.03 389.69L711.03 389.69" stroke="rgba(2, 39, 58, 1)" stroke-width="1.5"></path><path d="M711.03 389.69L661.39 488.54" stroke="rgba(2, 39, 58, 1)" stroke-width="1.5"></path><path d="M711.03 389.69L799.4 534.5" stroke="rgba(2, 39, 58, 1)" stroke-width="1.5"></path><path d="M661.39 488.54L661.39 488.54" stroke="rgba(2, 39, 58, 1)" stroke-width="1.5"></path><path d="M661.39 488.54L799.4 534.5" stroke="rgba(2, 39, 58, 1)" stroke-width="1.5"></path><path d="M669.83 665.83L669.83 665.83" stroke="rgba(2, 39, 58, 1)" stroke-width="1.5"></path><path d="M669.83 665.83L821.58 678.16" stroke="rgba(2, 39, 58, 1)" stroke-width="1.5"></path><path d="M669.83 665.83L661.39 488.54" stroke="rgba(2, 39, 58, 1)" stroke-width="1.5"></path><path d="M669.83 665.83L799.4 534.5" stroke="rgba(2, 39, 58, 1)" stroke-width="1.5"></path><path d="M669.83 665.83L519.08 506.27" stroke="rgba(2, 39, 58, 1)" stroke-width="1.5"></path><path d="M837.39 221.47L837.39 221.47" stroke="rgba(2, 39, 58, 1)" stroke-width="1.5"></path><path d="M837.39 221.47L941.95 214.02" stroke="rgba(2, 39, 58, 1)" stroke-width="1.5"></path><path d="M837.39 221.47L711.03 389.69" stroke="rgba(2, 39, 58, 1)" stroke-width="1.5"></path><path d="M837.39 221.47L1010.25 357.59" stroke="rgba(2, 39, 58, 1)" stroke-width="1.5"></path><path d="M837.39 221.47L999.68 71.22" stroke="rgba(2, 39, 58, 1)" stroke-width="1.5"></path><path d="M837.39 221.47L1101.55 190.58" stroke="rgba(2, 39, 58, 1)" stroke-width="1.5"></path><path d="M799.4 534.5L799.4 534.5" stroke="rgba(2, 39, 58, 1)" stroke-width="1.5"></path><path d="M799.4 534.5L821.58 678.16" stroke="rgba(2, 39, 58, 1)" stroke-width="1.5"></path><path d="M799.4 534.5L958.89 519.91" stroke="rgba(2, 39, 58, 1)" stroke-width="1.5"></path><path d="M821.58 678.16L821.58 678.16" stroke="rgba(2, 39, 58, 1)" stroke-width="1.5"></path><path d="M821.58 678.16L956.94 642.42" stroke="rgba(2, 39, 58, 1)" stroke-width="1.5"></path><path d="M821.58 678.16L958.89 519.91" stroke="rgba(2, 39, 58, 1)" stroke-width="1.5"></path><path d="M821.58 678.16L661.39 488.54" stroke="rgba(2, 39, 58, 1)" stroke-width="1.5"></path><path d="M965.4 -58.16L965.4 -58.16" stroke="rgba(2, 39, 58, 1)" stroke-width="1.5"></path><path d="M965.4 -58.16L999.68 71.22" stroke="rgba(2, 39, 58, 1)" stroke-width="1.5"></path><path d="M965.4 -58.16L1105.66 -60.87" stroke="rgba(2, 39, 58, 1)" stroke-width="1.5"></path><path d="M965.4 -58.16L1107.14 85.75" stroke="rgba(2, 39, 58, 1)" stroke-width="1.5"></path><path d="M965.4 -58.16L941.95 214.02" stroke="rgba(2, 39, 58, 1)" stroke-width="1.5"></path><path d="M999.68 71.22L999.68 71.22" stroke="rgba(2, 39, 58, 1)" stroke-width="1.5"></path><path d="M999.68 71.22L1107.14 85.75" stroke="rgba(2, 39, 58, 1)" stroke-width="1.5"></path><path d="M941.95 214.02L941.95 214.02" stroke="rgba(2, 39, 58, 1)" stroke-width="1.5"></path><path d="M941.95 214.02L999.68 71.22" stroke="rgba(2, 39, 58, 1)" stroke-width="1.5"></path><path d="M941.95 214.02L1010.25 357.59" stroke="rgba(2, 39, 58, 1)" stroke-width="1.5"></path><path d="M941.95 214.02L1101.55 190.58" stroke="rgba(2, 39, 58, 1)" stroke-width="1.5"></path><path d="M941.95 214.02L1107.14 85.75" stroke="rgba(2, 39, 58, 1)" stroke-width="1.5"></path><path d="M941.95 214.02L1108.82 343.16" stroke="rgba(2, 39, 58, 1)" stroke-width="1.5"></path><path d="M1010.25 357.59L1010.25 357.59" stroke="rgba(2, 39, 58, 1)" stroke-width="1.5"></path><path d="M1010.25 357.59L1108.82 343.16" stroke="rgba(2, 39, 58, 1)" stroke-width="1.5"></path><path d="M1010.25 357.59L958.89 519.91" stroke="rgba(2, 39, 58, 1)" stroke-width="1.5"></path><path d="M1010.25 357.59L1101.55 190.58" stroke="rgba(2, 39, 58, 1)" stroke-width="1.5"></path><path d="M958.89 519.91L958.89 519.91" stroke="rgba(2, 39, 58, 1)" stroke-width="1.5"></path><path d="M958.89 519.91L956.94 642.42" stroke="rgba(2, 39, 58, 1)" stroke-width="1.5"></path><path d="M958.89 519.91L1108.82 343.16" stroke="rgba(2, 39, 58, 1)" stroke-width="1.5"></path><path d="M958.89 519.91L1116.92 701.06" stroke="rgba(2, 39, 58, 1)" stroke-width="1.5"></path><path d="M956.94 642.42L956.94 642.42" stroke="rgba(2, 39, 58, 1)" stroke-width="1.5"></path><path d="M956.94 642.42L1116.92 701.06" stroke="rgba(2, 39, 58, 1)" stroke-width="1.5"></path><path d="M1105.66 -60.87L1105.66 -60.87" stroke="rgba(2, 39, 58, 1)" stroke-width="1.5"></path><path d="M1105.66 -60.87L1107.14 85.75" stroke="rgba(2, 39, 58, 1)" stroke-width="1.5"></path><path d="M1105.66 -60.87L999.68 71.22" stroke="rgba(2, 39, 58, 1)" stroke-width="1.5"></path><path d="M1105.66 -60.87L1274.25 -77.3" stroke="rgba(2, 39, 58, 1)" stroke-width="1.5"></path><path d="M1105.66 -60.87L1241.3 112.36" stroke="rgba(2, 39, 58, 1)" stroke-width="1.5"></path><path d="M1107.14 85.75L1107.14 85.75" stroke="rgba(2, 39, 58, 1)" stroke-width="1.5"></path><path d="M1107.14 85.75L1101.55 190.58" stroke="rgba(2, 39, 58, 1)" stroke-width="1.5"></path><path d="M1101.55 190.58L1101.55 190.58" stroke="rgba(2, 39, 58, 1)" stroke-width="1.5"></path><path d="M1101.55 190.58L1108.82 343.16" stroke="rgba(2, 39, 58, 1)" stroke-width="1.5"></path><path d="M1101.55 190.58L999.68 71.22" stroke="rgba(2, 39, 58, 1)" stroke-width="1.5"></path><path d="M1101.55 190.58L1241.3 112.36" stroke="rgba(2, 39, 58, 1)" stroke-width="1.5"></path><path d="M1101.55 190.58L1265.1 206.71" stroke="rgba(2, 39, 58, 1)" stroke-width="1.5"></path><path d="M1108.82 343.16L1108.82 343.16" stroke="rgba(2, 39, 58, 1)" stroke-width="1.5"></path><path d="M1116.92 701.06L1116.92 701.06" stroke="rgba(2, 39, 58, 1)" stroke-width="1.5"></path><path d="M1116.92 701.06L1310.04 658.15" stroke="rgba(2, 39, 58, 1)" stroke-width="1.5"></path><path d="M1116.92 701.06L1294.21 497.53" stroke="rgba(2, 39, 58, 1)" stroke-width="1.5"></path><path d="M1274.25 -77.3L1274.25 -77.3" stroke="rgba(2, 39, 58, 1)" stroke-width="1.5"></path><path d="M1274.25 -77.3L1410.08 -69.32" stroke="rgba(2, 39, 58, 1)" stroke-width="1.5"></path><path d="M1241.3 112.36L1241.3 112.36" stroke="rgba(2, 39, 58, 1)" stroke-width="1.5"></path><path d="M1241.3 112.36L1265.1 206.71" stroke="rgba(2, 39, 58, 1)" stroke-width="1.5"></path><path d="M1241.3 112.36L1107.14 85.75" stroke="rgba(2, 39, 58, 1)" stroke-width="1.5"></path><path d="M1241.3 112.36L1402.38 82.35" stroke="rgba(2, 39, 58, 1)" stroke-width="1.5"></path><path d="M1241.3 112.36L1274.25 -77.3" stroke="rgba(2, 39, 58, 1)" stroke-width="1.5"></path><path d="M1265.1 206.71L1265.1 206.71" stroke="rgba(2, 39, 58, 1)" stroke-width="1.5"></path><path d="M1265.1 206.71L1422.96 239.26" stroke="rgba(2, 39, 58, 1)" stroke-width="1.5"></path><path d="M1265.1 206.71L1290.75 368.57" stroke="rgba(2, 39, 58, 1)" stroke-width="1.5"></path><path d="M1290.75 368.57L1290.75 368.57" stroke="rgba(2, 39, 58, 1)" stroke-width="1.5"></path><path d="M1290.75 368.57L1390.55 378.55" stroke="rgba(2, 39, 58, 1)" stroke-width="1.5"></path><path d="M1290.75 368.57L1294.21 497.53" stroke="rgba(2, 39, 58, 1)" stroke-width="1.5"></path><path d="M1290.75 368.57L1108.82 343.16" stroke="rgba(2, 39, 58, 1)" stroke-width="1.5"></path><path d="M1290.75 368.57L1422.96 239.26" stroke="rgba(2, 39, 58, 1)" stroke-width="1.5"></path><path d="M1290.75 368.57L1428.7 515.16" stroke="rgba(2, 39, 58, 1)" stroke-width="1.5"></path><path d="M1294.21 497.53L1294.21 497.53" stroke="rgba(2, 39, 58, 1)" stroke-width="1.5"></path><path d="M1294.21 497.53L1428.7 515.16" stroke="rgba(2, 39, 58, 1)" stroke-width="1.5"></path><path d="M1294.21 497.53L1390.55 378.55" stroke="rgba(2, 39, 58, 1)" stroke-width="1.5"></path><path d="M1294.21 497.53L1310.04 658.15" stroke="rgba(2, 39, 58, 1)" stroke-width="1.5"></path><path d="M1310.04 658.15L1310.04 658.15" stroke="rgba(2, 39, 58, 1)" stroke-width="1.5"></path><path d="M1310.04 658.15L1428.7 515.16" stroke="rgba(2, 39, 58, 1)" stroke-width="1.5"></path><path d="M1410.08 -69.32L1410.08 -69.32" stroke="rgba(2, 39, 58, 1)" stroke-width="1.5"></path><path d="M1410.08 -69.32L1402.38 82.35" stroke="rgba(2, 39, 58, 1)" stroke-width="1.5"></path><path d="M1402.38 82.35L1402.38 82.35" stroke="rgba(2, 39, 58, 1)" stroke-width="1.5"></path><path d="M1402.38 82.35L1422.96 239.26" stroke="rgba(2, 39, 58, 1)" stroke-width="1.5"></path><path d="M1402.38 82.35L1265.1 206.71" stroke="rgba(2, 39, 58, 1)" stroke-width="1.5"></path><path d="M1422.96 239.26L1422.96 239.26" stroke="rgba(2, 39, 58, 1)" stroke-width="1.5"></path><path d="M1422.96 239.26L1561.32 238.65" stroke="rgba(2, 39, 58, 1)" stroke-width="1.5"></path><path d="M1422.96 239.26L1390.55 378.55" stroke="rgba(2, 39, 58, 1)" stroke-width="1.5"></path><path d="M1390.55 378.55L1390.55 378.55" stroke="rgba(2, 39, 58, 1)" stroke-width="1.5"></path><path d="M1390.55 378.55L1428.7 515.16" stroke="rgba(2, 39, 58, 1)" stroke-width="1.5"></path><path d="M1428.7 515.16L1428.7 515.16" stroke="rgba(2, 39, 58, 1)" stroke-width="1.5"></path><path d="M1428.7 515.16L1572.57 501.19" stroke="rgba(2, 39, 58, 1)" stroke-width="1.5"></path><path d="M1570.03 -76.82L1570.03 -76.82" stroke="rgba(2, 39, 58, 1)" stroke-width="1.5"></path><path d="M1570.03 -76.82L1410.08 -69.32" stroke="rgba(2, 39, 58, 1)" stroke-width="1.5"></path><path d="M1570.03 -76.82L1609.48 86.6" stroke="rgba(2, 39, 58, 1)" stroke-width="1.5"></path><path d="M1570.03 -76.82L1402.38 82.35" stroke="rgba(2, 39, 58, 1)" stroke-width="1.5"></path><path d="M1570.03 -76.82L1274.25 -77.3" stroke="rgba(2, 39, 58, 1)" stroke-width="1.5"></path><path d="M1609.48 86.6L1609.48 86.6" stroke="rgba(2, 39, 58, 1)" stroke-width="1.5"></path><path d="M1609.48 86.6L1561.32 238.65" stroke="rgba(2, 39, 58, 1)" stroke-width="1.5"></path><path d="M1609.48 86.6L1402.38 82.35" stroke="rgba(2, 39, 58, 1)" stroke-width="1.5"></path><path d="M1609.48 86.6L1422.96 239.26" stroke="rgba(2, 39, 58, 1)" stroke-width="1.5"></path><path d="M1609.48 86.6L1410.08 -69.32" stroke="rgba(2, 39, 58, 1)" stroke-width="1.5"></path><path d="M1609.48 86.6L1552.45 355.67" stroke="rgba(2, 39, 58, 1)" stroke-width="1.5"></path><path d="M1561.32 238.65L1561.32 238.65" stroke="rgba(2, 39, 58, 1)" stroke-width="1.5"></path><path d="M1561.32 238.65L1552.45 355.67" stroke="rgba(2, 39, 58, 1)" stroke-width="1.5"></path><path d="M1561.32 238.65L1390.55 378.55" stroke="rgba(2, 39, 58, 1)" stroke-width="1.5"></path><path d="M1561.32 238.65L1402.38 82.35" stroke="rgba(2, 39, 58, 1)" stroke-width="1.5"></path><path d="M1552.45 355.67L1552.45 355.67" stroke="rgba(2, 39, 58, 1)" stroke-width="1.5"></path><path d="M1552.45 355.67L1572.57 501.19" stroke="rgba(2, 39, 58, 1)" stroke-width="1.5"></path><path d="M1552.45 355.67L1390.55 378.55" stroke="rgba(2, 39, 58, 1)" stroke-width="1.5"></path><path d="M1572.57 501.19L1572.57 501.19" stroke="rgba(2, 39, 58, 1)" stroke-width="1.5"></path><path d="M1572.57 501.19L1612.31 694.07" stroke="rgba(2, 39, 58, 1)" stroke-width="1.5"></path><path d="M1612.31 694.07L1612.31 694.07" stroke="rgba(2, 39, 58, 1)" stroke-width="1.5"></path><path d="M1612.31 694.07L1428.7 515.16" stroke="rgba(2, 39, 58, 1)" stroke-width="1.5"></path><path d="M1612.31 694.07L1310.04 658.15" stroke="rgba(2, 39, 58, 1)" stroke-width="1.5"></path><path d="M1612.31 694.07L1552.45 355.67" stroke="rgba(2, 39, 58, 1)" stroke-width="1.5"></path><path d="M1612.31 694.07L1294.21 497.53" stroke="rgba(2, 39, 58, 1)" stroke-width="1.5"></path><circle r="5" cx="-91.83" cy="349.16" fill="rgba(2, 39, 58, 1)"></circle><circle r="5" cx="-55.77" cy="493.46" fill="rgba(2, 39, 58, 1)"></circle><circle r="5" cx="-63.47" cy="665.91" fill="rgba(2, 39, 58, 1)"></circle><circle r="5" cx="45.02" cy="410.94" fill="rgba(2, 39, 58, 1)"></circle><circle r="5" cx="42.31" cy="513.24" fill="rgba(2, 39, 58, 1)"></circle><circle r="5" cx="80.47" cy="674.6" fill="rgba(2, 39, 58, 1)"></circle><circle r="5" cx="243.21" cy="366.33" fill="rgba(2, 39, 58, 1)"></circle><circle r="5" cx="243.14" cy="548.49" fill="rgba(2, 39, 58, 1)"></circle><circle r="5" cx="201.69" cy="666.86" fill="rgba(2, 39, 58, 1)"></circle><circle r="5" cx="346.72" cy="395.53" fill="rgba(2, 39, 58, 1)"></circle><circle r="5" cx="371.92" cy="537.59" fill="rgba(2, 39, 58, 1)"></circle><circle r="5" cx="361.6" cy="649.59" fill="rgba(2, 39, 58, 1)"></circle><circle r="5" cx="538.27" cy="404.98" fill="rgba(2, 39, 58, 1)"></circle><circle r="5" cx="519.08" cy="506.27" fill="rgba(2, 39, 58, 1)"></circle><circle r="5" cx="503.72" cy="645.8" fill="rgba(2, 39, 58, 1)"></circle><circle r="5" cx="687.43" cy="235.23" fill="rgba(2, 39, 58, 1)"></circle><circle r="5" cx="711.03" cy="389.69" fill="rgba(2, 39, 58, 1)"></circle><circle r="5" cx="661.39" cy="488.54" fill="rgba(2, 39, 58, 1)"></circle><circle r="5" cx="669.83" cy="665.83" fill="rgba(2, 39, 58, 1)"></circle><circle r="5" cx="837.39" cy="221.47" fill="rgba(2, 39, 58, 1)"></circle><circle r="5" cx="799.4" cy="534.5" fill="rgba(2, 39, 58, 1)"></circle><circle r="5" cx="821.58" cy="678.16" fill="rgba(2, 39, 58, 1)"></circle><circle r="5" cx="965.4" cy="-58.16" fill="rgba(2, 39, 58, 1)"></circle><circle r="5" cx="999.68" cy="71.22" fill="rgba(2, 39, 58, 1)"></circle><circle r="5" cx="941.95" cy="214.02" fill="rgba(2, 39, 58, 1)"></circle><circle r="5" cx="1010.25" cy="357.59" fill="rgba(2, 39, 58, 1)"></circle><circle r="5" cx="958.89" cy="519.91" fill="rgba(2, 39, 58, 1)"></circle><circle r="5" cx="956.94" cy="642.42" fill="rgba(2, 39, 58, 1)"></circle><circle r="5" cx="1105.66" cy="-60.87" fill="rgba(2, 39, 58, 1)"></circle><circle r="5" cx="1107.14" cy="85.75" fill="rgba(2, 39, 58, 1)"></circle><circle r="5" cx="1101.55" cy="190.58" fill="rgba(2, 39, 58, 1)"></circle><circle r="5" cx="1108.82" cy="343.16" fill="rgba(2, 39, 58, 1)"></circle><circle r="5" cx="1116.92" cy="701.06" fill="rgba(2, 39, 58, 1)"></circle><circle r="5" cx="1274.25" cy="-77.3" fill="rgba(2, 39, 58, 1)"></circle><circle r="5" cx="1241.3" cy="112.36" fill="rgba(2, 39, 58, 1)"></circle><circle r="5" cx="1265.1" cy="206.71" fill="rgba(2, 39, 58, 1)"></circle><circle r="5" cx="1290.75" cy="368.57" fill="rgba(2, 39, 58, 1)"></circle><circle r="5" cx="1294.21" cy="497.53" fill="rgba(2, 39, 58, 1)"></circle><circle r="5" cx="1310.04" cy="658.15" fill="rgba(2, 39, 58, 1)"></circle><circle r="5" cx="1410.08" cy="-69.32" fill="rgba(2, 39, 58, 1)"></circle><circle r="5" cx="1402.38" cy="82.35" fill="rgba(2, 39, 58, 1)"></circle><circle r="5" cx="1422.96" cy="239.26" fill="rgba(2, 39, 58, 1)"></circle><circle r="5" cx="1390.55" cy="378.55" fill="rgba(2, 39, 58, 1)"></circle><circle r="5" cx="1428.7" cy="515.16" fill="rgba(2, 39, 58, 1)"></circle><circle r="5" cx="1570.03" cy="-76.82" fill="rgba(2, 39, 58, 1)"></circle><circle r="5" cx="1609.48" cy="86.6" fill="rgba(2, 39, 58, 1)"></circle><circle r="5" cx="1561.32" cy="238.65" fill="rgba(2, 39, 58, 1)"></circle><circle r="5" cx="1552.45" cy="355.67" fill="rgba(2, 39, 58, 1)"></circle><circle r="5" cx="1572.57" cy="501.19" fill="rgba(2, 39, 58, 1)"></circle><circle r="5" cx="1612.31" cy="694.07" fill="rgba(2, 39, 58, 1)"></circle><path d="M56.01 667.32L56.01 667.32" stroke="hsl(37.30000000000001, 98.4%, 65%)" stroke-width="1.5"></path><path d="M56.01 667.32L-46.64 672.62" stroke="hsl(37.30000000000001, 98.4%, 65%)" stroke-width="1.5"></path><path d="M56.01 667.32L93.62 552.84" stroke="hsl(37.30000000000001, 98.4%, 65%)" stroke-width="1.5"></path><path d="M56.01 667.32L-92.87 535.2" stroke="hsl(37.30000000000001, 98.4%, 65%)" stroke-width="1.5"></path><path d="M56.01 667.32L256.82 675.22" stroke="hsl(37.30000000000001, 98.4%, 65%)" stroke-width="1.5"></path><path d="M560.48 652.16L560.48 652.16" stroke="hsl(37.30000000000001, 98.4%, 65%)" stroke-width="1.5"></path><path d="M560.48 652.16L638.54 553.78" stroke="hsl(37.30000000000001, 98.4%, 65%)" stroke-width="1.5"></path><path d="M560.48 652.16L677.77 701.32" stroke="hsl(37.30000000000001, 98.4%, 65%)" stroke-width="1.5"></path><path d="M560.48 652.16L514.04 504.15" stroke="hsl(37.30000000000001, 98.4%, 65%)" stroke-width="1.5"></path><path d="M843.79 348.42L843.79 348.42" stroke="hsl(37.30000000000001, 98.4%, 65%)" stroke-width="1.5"></path><path d="M843.79 348.42L947.77 367.34" stroke="hsl(37.30000000000001, 98.4%, 65%)" stroke-width="1.5"></path><path d="M843.79 348.42L801.73 515.58" stroke="hsl(37.30000000000001, 98.4%, 65%)" stroke-width="1.5"></path><path d="M843.79 348.42L944 496.99" stroke="hsl(37.30000000000001, 98.4%, 65%)" stroke-width="1.5"></path><path d="M944 496.99L944 496.99" stroke="hsl(37.30000000000001, 98.4%, 65%)" stroke-width="1.5"></path><path d="M944 496.99L947.77 367.34" stroke="hsl(37.30000000000001, 98.4%, 65%)" stroke-width="1.5"></path><path d="M944 496.99L801.73 515.58" stroke="hsl(37.30000000000001, 98.4%, 65%)" stroke-width="1.5"></path><path d="M944 496.99L1104.5 544.43" stroke="hsl(37.30000000000001, 98.4%, 65%)" stroke-width="1.5"></path><path d="M944 496.99L969.27 689.25" stroke="hsl(37.30000000000001, 98.4%, 65%)" stroke-width="1.5"></path><path d="M944 496.99L1120.48 403.65" stroke="hsl(37.30000000000001, 98.4%, 65%)" stroke-width="1.5"></path><path d="M1135.47 250.51L1135.47 250.51" stroke="hsl(37.30000000000001, 98.4%, 65%)" stroke-width="1.5"></path><path d="M1135.47 250.51L986.32 238" stroke="hsl(37.30000000000001, 98.4%, 65%)" stroke-width="1.5"></path><path d="M1135.47 250.51L1254.54 341.72" stroke="hsl(37.30000000000001, 98.4%, 65%)" stroke-width="1.5"></path><path d="M1120.48 403.65L1120.48 403.65" stroke="hsl(37.30000000000001, 98.4%, 65%)" stroke-width="1.5"></path><path d="M1120.48 403.65L1104.5 544.43" stroke="hsl(37.30000000000001, 98.4%, 65%)" stroke-width="1.5"></path><path d="M1120.48 403.65L1254.54 341.72" stroke="hsl(37.30000000000001, 98.4%, 65%)" stroke-width="1.5"></path><path d="M1120.48 403.65L1135.47 250.51" stroke="hsl(37.30000000000001, 98.4%, 65%)" stroke-width="1.5"></path><path d="M1120.48 403.65L947.77 367.34" stroke="hsl(37.30000000000001, 98.4%, 65%)" stroke-width="1.5"></path><path d="M1120.48 403.65L986.32 238" stroke="hsl(37.30000000000001, 98.4%, 65%)" stroke-width="1.5"></path><path d="M1238.51 52.94L1238.51 52.94" stroke="hsl(37.30000000000001, 98.4%, 65%)" stroke-width="1.5"></path><path d="M1238.51 52.94L1246.67 -52.27" stroke="hsl(37.30000000000001, 98.4%, 65%)" stroke-width="1.5"></path><path d="M1238.51 52.94L1298.83 223.24" stroke="hsl(37.30000000000001, 98.4%, 65%)" stroke-width="1.5"></path><path d="M1238.51 52.94L1418.01 82.01" stroke="hsl(37.30000000000001, 98.4%, 65%)" stroke-width="1.5"></path><path d="M1396.67 254.93L1396.67 254.93" stroke="hsl(37.30000000000001, 98.4%, 65%)" stroke-width="1.5"></path><path d="M1396.67 254.93L1298.83 223.24" stroke="hsl(37.30000000000001, 98.4%, 65%)" stroke-width="1.5"></path><path d="M1396.67 254.93L1393.83 369.35" stroke="hsl(37.30000000000001, 98.4%, 65%)" stroke-width="1.5"></path><path d="M1396.67 254.93L1254.54 341.72" stroke="hsl(37.30000000000001, 98.4%, 65%)" stroke-width="1.5"></path><path d="M1396.67 254.93L1418.01 82.01" stroke="hsl(37.30000000000001, 98.4%, 65%)" stroke-width="1.5"></path><path d="M1396.67 254.93L1578.46 252.26" stroke="hsl(37.30000000000001, 98.4%, 65%)" stroke-width="1.5"></path><path d="M1393.83 369.35L1393.83 369.35" stroke="hsl(37.30000000000001, 98.4%, 65%)" stroke-width="1.5"></path><path d="M1458.16 493.85L1458.16 493.85" stroke="hsl(37.30000000000001, 98.4%, 65%)" stroke-width="1.5"></path><path d="M1458.16 493.85L1562.03 509.71" stroke="hsl(37.30000000000001, 98.4%, 65%)" stroke-width="1.5"></path><path d="M1458.16 493.85L1393.83 369.35" stroke="hsl(37.30000000000001, 98.4%, 65%)" stroke-width="1.5"></path><path d="M1457.14 682.51L1457.14 682.51" stroke="hsl(37.30000000000001, 98.4%, 65%)" stroke-width="1.5"></path><path d="M1457.14 682.51L1552.69 683.48" stroke="hsl(37.30000000000001, 98.4%, 65%)" stroke-width="1.5"></path><path d="M1457.14 682.51L1458.16 493.85" stroke="hsl(37.30000000000001, 98.4%, 65%)" stroke-width="1.5"></path><path d="M-92.87 535.2L-92.87 535.2" stroke="hsl(37.30000000000001, 98.4%, 65%)" stroke-width="1.5"></path><path d="M-92.87 535.2L-46.64 672.62" stroke="hsl(37.30000000000001, 98.4%, 65%)" stroke-width="1.5"></path><path d="M-92.87 535.2L93.62 552.84" stroke="hsl(37.30000000000001, 98.4%, 65%)" stroke-width="1.5"></path><path d="M-46.64 672.62L-46.64 672.62" stroke="hsl(37.30000000000001, 98.4%, 65%)" stroke-width="1.5"></path><path d="M-46.64 672.62L93.62 552.84" stroke="hsl(37.30000000000001, 98.4%, 65%)" stroke-width="1.5"></path><path d="M93.62 552.84L93.62 552.84" stroke="hsl(37.30000000000001, 98.4%, 65%)" stroke-width="1.5"></path><path d="M93.62 552.84L206.97 491.17" stroke="hsl(37.30000000000001, 98.4%, 65%)" stroke-width="1.5"></path><path d="M93.62 552.84L256.82 675.22" stroke="hsl(37.30000000000001, 98.4%, 65%)" stroke-width="1.5"></path><path d="M93.62 552.84L349.38 517.59" stroke="hsl(37.30000000000001, 98.4%, 65%)" stroke-width="1.5"></path><path d="M206.97 491.17L206.97 491.17" stroke="hsl(37.30000000000001, 98.4%, 65%)" stroke-width="1.5"></path><path d="M206.97 491.17L349.38 517.59" stroke="hsl(37.30000000000001, 98.4%, 65%)" stroke-width="1.5"></path><path d="M206.97 491.17L256.82 675.22" stroke="hsl(37.30000000000001, 98.4%, 65%)" stroke-width="1.5"></path><path d="M206.97 491.17L337.66 669.61" stroke="hsl(37.30000000000001, 98.4%, 65%)" stroke-width="1.5"></path><path d="M256.82 675.22L256.82 675.22" stroke="hsl(37.30000000000001, 98.4%, 65%)" stroke-width="1.5"></path><path d="M256.82 675.22L337.66 669.61" stroke="hsl(37.30000000000001, 98.4%, 65%)" stroke-width="1.5"></path><path d="M256.82 675.22L349.38 517.59" stroke="hsl(37.30000000000001, 98.4%, 65%)" stroke-width="1.5"></path><path d="M349.38 517.59L349.38 517.59" stroke="hsl(37.30000000000001, 98.4%, 65%)" stroke-width="1.5"></path><path d="M349.38 517.59L337.66 669.61" stroke="hsl(37.30000000000001, 98.4%, 65%)" stroke-width="1.5"></path><path d="M349.38 517.59L514.04 504.15" stroke="hsl(37.30000000000001, 98.4%, 65%)" stroke-width="1.5"></path><path d="M349.38 517.59L560.48 652.16" stroke="hsl(37.30000000000001, 98.4%, 65%)" stroke-width="1.5"></path><path d="M337.66 669.61L337.66 669.61" stroke="hsl(37.30000000000001, 98.4%, 65%)" stroke-width="1.5"></path><path d="M337.66 669.61L560.48 652.16" stroke="hsl(37.30000000000001, 98.4%, 65%)" stroke-width="1.5"></path><path d="M337.66 669.61L514.04 504.15" stroke="hsl(37.30000000000001, 98.4%, 65%)" stroke-width="1.5"></path><path d="M337.66 669.61L93.62 552.84" stroke="hsl(37.30000000000001, 98.4%, 65%)" stroke-width="1.5"></path><path d="M514.04 504.15L514.04 504.15" stroke="hsl(37.30000000000001, 98.4%, 65%)" stroke-width="1.5"></path><path d="M514.04 504.15L638.54 553.78" stroke="hsl(37.30000000000001, 98.4%, 65%)" stroke-width="1.5"></path><path d="M514.04 504.15L677.77 701.32" stroke="hsl(37.30000000000001, 98.4%, 65%)" stroke-width="1.5"></path><path d="M638.54 553.78L638.54 553.78" stroke="hsl(37.30000000000001, 98.4%, 65%)" stroke-width="1.5"></path><path d="M677.77 701.32L677.77 701.32" stroke="hsl(37.30000000000001, 98.4%, 65%)" stroke-width="1.5"></path><path d="M677.77 701.32L638.54 553.78" stroke="hsl(37.30000000000001, 98.4%, 65%)" stroke-width="1.5"></path><path d="M677.77 701.32L860.74 703.73" stroke="hsl(37.30000000000001, 98.4%, 65%)" stroke-width="1.5"></path><path d="M677.77 701.32L801.73 515.58" stroke="hsl(37.30000000000001, 98.4%, 65%)" stroke-width="1.5"></path><path d="M801.73 515.58L801.73 515.58" stroke="hsl(37.30000000000001, 98.4%, 65%)" stroke-width="1.5"></path><path d="M860.74 703.73L860.74 703.73" stroke="hsl(37.30000000000001, 98.4%, 65%)" stroke-width="1.5"></path><path d="M860.74 703.73L969.27 689.25" stroke="hsl(37.30000000000001, 98.4%, 65%)" stroke-width="1.5"></path><path d="M986.32 238L986.32 238" stroke="hsl(37.30000000000001, 98.4%, 65%)" stroke-width="1.5"></path><path d="M986.32 238L947.77 367.34" stroke="hsl(37.30000000000001, 98.4%, 65%)" stroke-width="1.5"></path><path d="M986.32 238L843.79 348.42" stroke="hsl(37.30000000000001, 98.4%, 65%)" stroke-width="1.5"></path><path d="M986.32 238L944 496.99" stroke="hsl(37.30000000000001, 98.4%, 65%)" stroke-width="1.5"></path><path d="M986.32 238L1254.54 341.72" stroke="hsl(37.30000000000001, 98.4%, 65%)" stroke-width="1.5"></path><path d="M947.77 367.34L947.77 367.34" stroke="hsl(37.30000000000001, 98.4%, 65%)" stroke-width="1.5"></path><path d="M969.27 689.25L969.27 689.25" stroke="hsl(37.30000000000001, 98.4%, 65%)" stroke-width="1.5"></path><path d="M969.27 689.25L1146.04 688.63" stroke="hsl(37.30000000000001, 98.4%, 65%)" stroke-width="1.5"></path><path d="M1104.5 544.43L1104.5 544.43" stroke="hsl(37.30000000000001, 98.4%, 65%)" stroke-width="1.5"></path><path d="M1104.5 544.43L1146.04 688.63" stroke="hsl(37.30000000000001, 98.4%, 65%)" stroke-width="1.5"></path><path d="M1104.5 544.43L969.27 689.25" stroke="hsl(37.30000000000001, 98.4%, 65%)" stroke-width="1.5"></path><path d="M1146.04 688.63L1146.04 688.63" stroke="hsl(37.30000000000001, 98.4%, 65%)" stroke-width="1.5"></path><path d="M1146.04 688.63L1258.94 684.49" stroke="hsl(37.30000000000001, 98.4%, 65%)" stroke-width="1.5"></path><path d="M1146.04 688.63L944 496.99" stroke="hsl(37.30000000000001, 98.4%, 65%)" stroke-width="1.5"></path><path d="M1246.67 -52.27L1246.67 -52.27" stroke="hsl(37.30000000000001, 98.4%, 65%)" stroke-width="1.5"></path><path d="M1246.67 -52.27L1420.58 -84.16" stroke="hsl(37.30000000000001, 98.4%, 65%)" stroke-width="1.5"></path><path d="M1246.67 -52.27L1418.01 82.01" stroke="hsl(37.30000000000001, 98.4%, 65%)" stroke-width="1.5"></path><path d="M1246.67 -52.27L1298.83 223.24" stroke="hsl(37.30000000000001, 98.4%, 65%)" stroke-width="1.5"></path><path d="M1246.67 -52.27L1543.88 -84.36" stroke="hsl(37.30000000000001, 98.4%, 65%)" stroke-width="1.5"></path><path d="M1246.67 -52.27L1135.47 250.51" stroke="hsl(37.30000000000001, 98.4%, 65%)" stroke-width="1.5"></path><path d="M1298.83 223.24L1298.83 223.24" stroke="hsl(37.30000000000001, 98.4%, 65%)" stroke-width="1.5"></path><path d="M1298.83 223.24L1254.54 341.72" stroke="hsl(37.30000000000001, 98.4%, 65%)" stroke-width="1.5"></path><path d="M1298.83 223.24L1135.47 250.51" stroke="hsl(37.30000000000001, 98.4%, 65%)" stroke-width="1.5"></path><path d="M1254.54 341.72L1254.54 341.72" stroke="hsl(37.30000000000001, 98.4%, 65%)" stroke-width="1.5"></path><path d="M1254.54 341.72L1393.83 369.35" stroke="hsl(37.30000000000001, 98.4%, 65%)" stroke-width="1.5"></path><path d="M1258.94 684.49L1258.94 684.49" stroke="hsl(37.30000000000001, 98.4%, 65%)" stroke-width="1.5"></path><path d="M1258.94 684.49L1457.14 682.51" stroke="hsl(37.30000000000001, 98.4%, 65%)" stroke-width="1.5"></path><path d="M1258.94 684.49L1104.5 544.43" stroke="hsl(37.30000000000001, 98.4%, 65%)" stroke-width="1.5"></path><path d="M1420.58 -84.16L1420.58 -84.16" stroke="hsl(37.30000000000001, 98.4%, 65%)" stroke-width="1.5"></path><path d="M1420.58 -84.16L1543.88 -84.36" stroke="hsl(37.30000000000001, 98.4%, 65%)" stroke-width="1.5"></path><path d="M1420.58 -84.16L1418.01 82.01" stroke="hsl(37.30000000000001, 98.4%, 65%)" stroke-width="1.5"></path><path d="M1420.58 -84.16L1554.11 52.36" stroke="hsl(37.30000000000001, 98.4%, 65%)" stroke-width="1.5"></path><path d="M1418.01 82.01L1418.01 82.01" stroke="hsl(37.30000000000001, 98.4%, 65%)" stroke-width="1.5"></path><path d="M1418.01 82.01L1554.11 52.36" stroke="hsl(37.30000000000001, 98.4%, 65%)" stroke-width="1.5"></path><path d="M1543.88 -84.36L1543.88 -84.36" stroke="hsl(37.30000000000001, 98.4%, 65%)" stroke-width="1.5"></path><path d="M1543.88 -84.36L1554.11 52.36" stroke="hsl(37.30000000000001, 98.4%, 65%)" stroke-width="1.5"></path><path d="M1554.11 52.36L1554.11 52.36" stroke="hsl(37.30000000000001, 98.4%, 65%)" stroke-width="1.5"></path><path d="M1578.46 252.26L1578.46 252.26" stroke="hsl(37.30000000000001, 98.4%, 65%)" stroke-width="1.5"></path><path d="M1578.46 252.26L1598.03 345.52" stroke="hsl(37.30000000000001, 98.4%, 65%)" stroke-width="1.5"></path><path d="M1578.46 252.26L1554.11 52.36" stroke="hsl(37.30000000000001, 98.4%, 65%)" stroke-width="1.5"></path><path d="M1598.03 345.52L1598.03 345.52" stroke="hsl(37.30000000000001, 98.4%, 65%)" stroke-width="1.5"></path><path d="M1598.03 345.52L1562.03 509.71" stroke="hsl(37.30000000000001, 98.4%, 65%)" stroke-width="1.5"></path><path d="M1562.03 509.71L1562.03 509.71" stroke="hsl(37.30000000000001, 98.4%, 65%)" stroke-width="1.5"></path><path d="M1562.03 509.71L1552.69 683.48" stroke="hsl(37.30000000000001, 98.4%, 65%)" stroke-width="1.5"></path><path d="M1562.03 509.71L1457.14 682.51" stroke="hsl(37.30000000000001, 98.4%, 65%)" stroke-width="1.5"></path><path d="M1552.69 683.48L1552.69 683.48" stroke="hsl(37.30000000000001, 98.4%, 65%)" stroke-width="1.5"></path><circle r="25" cx="56.01" cy="667.32" fill="url(&quot;#SvgjsRadialGradient1358&quot;)"></circle><circle r="25" cx="560.48" cy="652.16" fill="url(&quot;#SvgjsRadialGradient1358&quot;)"></circle><circle r="25" cx="843.79" cy="348.42" fill="url(&quot;#SvgjsRadialGradient1358&quot;)"></circle><circle r="25" cx="944" cy="496.99" fill="url(&quot;#SvgjsRadialGradient1358&quot;)"></circle><circle r="25" cx="1135.47" cy="250.51" fill="url(&quot;#SvgjsRadialGradient1358&quot;)"></circle><circle r="25" cx="1120.48" cy="403.65" fill="url(&quot;#SvgjsRadialGradient1358&quot;)"></circle><circle r="25" cx="1238.51" cy="52.94" fill="url(&quot;#SvgjsRadialGradient1358&quot;)"></circle><circle r="25" cx="1396.67" cy="254.93" fill="url(&quot;#SvgjsRadialGradient1358&quot;)"></circle><circle r="25" cx="1393.83" cy="369.35" fill="url(&quot;#SvgjsRadialGradient1358&quot;)"></circle><circle r="25" cx="1458.16" cy="493.85" fill="url(&quot;#SvgjsRadialGradient1358&quot;)"></circle><circle r="25" cx="1457.14" cy="682.51" fill="url(&quot;#SvgjsRadialGradient1358&quot;)"></circle><circle r="5" cx="-92.87" cy="535.2" fill="#fecf81"></circle><circle r="5" cx="-46.64" cy="672.62" fill="#fecf81"></circle><circle r="5" cx="93.62" cy="552.84" fill="#fecf81"></circle><circle r="5" cx="206.97" cy="491.17" fill="#fecf81"></circle><circle r="5" cx="256.82" cy="675.22" fill="#fecf81"></circle><circle r="5" cx="349.38" cy="517.59" fill="#fecf81"></circle><circle r="5" cx="337.66" cy="669.61" fill="#fecf81"></circle><circle r="5" cx="514.04" cy="504.15" fill="#fecf81"></circle><circle r="5" cx="638.54" cy="553.78" fill="#fecf81"></circle><circle r="5" cx="677.77" cy="701.32" fill="#fecf81"></circle><circle r="5" cx="801.73" cy="515.58" fill="#fecf81"></circle><circle r="5" cx="860.74" cy="703.73" fill="#fecf81"></circle><circle r="5" cx="986.32" cy="238" fill="#fecf81"></circle><circle r="5" cx="947.77" cy="367.34" fill="#fecf81"></circle><circle r="5" cx="969.27" cy="689.25" fill="#fecf81"></circle><circle r="5" cx="1104.5" cy="544.43" fill="#fecf81"></circle><circle r="5" cx="1146.04" cy="688.63" fill="#fecf81"></circle><circle r="5" cx="1246.67" cy="-52.27" fill="#fecf81"></circle><circle r="5" cx="1298.83" cy="223.24" fill="#fecf81"></circle><circle r="5" cx="1254.54" cy="341.72" fill="#fecf81"></circle><circle r="5" cx="1258.94" cy="684.49" fill="#fecf81"></circle><circle r="5" cx="1420.58" cy="-84.16" fill="#fecf81"></circle><circle r="5" cx="1418.01" cy="82.01" fill="#fecf81"></circle><circle r="5" cx="1543.88" cy="-84.36" fill="#fecf81"></circle><circle r="5" cx="1554.11" cy="52.36" fill="#fecf81"></circle><circle r="5" cx="1578.46" cy="252.26" fill="#fecf81"></circle><circle r="5" cx="1598.03" cy="345.52" fill="#fecf81"></circle><circle r="5" cx="1562.03" cy="509.71" fill="#fecf81"></circle><circle r="5" cx="1552.69" cy="683.48" fill="#fecf81"></circle></g><defs><mask id="SvgjsMask1356"><rect width="1440" height="560" fill="#ffffff"></rect></mask><linearGradient x1="15.28%" y1="-39.29%" x2="84.72%" y2="139.29%" gradientUnits="userSpaceOnUse" id="SvgjsLinearGradient1357"><stop stop-color="#0e2a47" offset="0"></stop><stop stop-color="rgba(14, 40, 74, 1)" offset="1"></stop></linearGradient><radialGradient id="SvgjsRadialGradient1358"><stop stop-color="#ffffff" offset="0.1"></stop><stop stop-color="rgba(253, 158, 2, 1)" offset="0.2"></stop><stop stop-color="rgba(253, 158, 2, 0)" offset="1"></stop></radialGradient></defs></svg>